ply
format ascii 1.0
comment VCGLIB generated
element vertex 106
property float x
property float y
property float z
element face 208
property list uchar int vertex_indices
end_header
0.019551 0.098212 0.041792 
0.029085 0.039817 0.016571 
0.026326 0.039554 0.01358 
0.025459 0.089719 0.042234 
0.014239 -0.000611 0.044689 
0.028114 0.019597 0.082936 
0.030436 0.094081 0.073063 
0.030777 0.091585 0.074378 
0.030527 0.093319 0.072645 
0.01855287 0.03880728 0.01600567 
0.017296 0.038552 0.019132 
0.01790347 -0.004 0.07841124 
0.017781 -0.003793 0.080051 
0.021496 0.034416 0.082999 
0.017838 0.006432 0.082983 
0.019617 0.051177 0.082149 
0.019969 0.089626 0.080027 
0.013683 0.09783 0.074876 
0.018316 0.087448 0.079405 
0.013233 0.084905 0.045697 
0.017847 0.040881 0.017427 
0.013231 0.071232 0.043502 
0.01282 0.00083 0.076564 
0.012603 0.000772 0.073539 
0.028009 0.097574 0.065493 
0.027338 0.099278 0.066664 
0.024777 0.092037 0.080926 
0.01946864 0.09883101 0.07822331 
0.026915 0.1009895 0.070426 
0.0204 -0.004 0.0754 
0.03517302 0.009375079 0.03897327 
0.032935 0.03915 0.074516 
0.029296 -0.003458 0.078271 
0.029752 -0.003366 0.076805 
0.01337998 -0.001875204 0.05099247 
0.012831 0.000877 0.050318 
0.03522741 0.008527692 0.03991917 
0.03021 0.010013 0.016193 
0.020313 -0.001598 0.023802 
0.02022 -0.000871 0.023333 
0.030764 -0.003882 0.038228 
0.0305445 0.012343 0.0168005 
0.0296 -0.004 0.0379125 
0.028 -0.004 0.0288 
0.02285157 -0.003996539 0.02475639 
0.023422 -0.002122 0.021351 
0.0234914 0.03931611 0.01327427 
0.0163335 -0.003996186 0.05143345 
0.013043 0.007552 0.048214 
0.015079 -0.0037 0.072787 
0.02794531 -0.00347386 0.07994799 
0.02618677 -0.002928337 0.08172474 
0.01822829 0.001010601 0.08300003 
0.017144 0.000231 0.08289 
0.0158005 -0.003859 0.075101 
0.015152 -0.002884 0.080222 
0.01324418 -0.0004714588 0.07945192 
0.014859 0.000225 0.08169 
0.012801 0.001211 0.050717 
0.01691543 0.003936641 0.08285637 
0.014758 0.004744 0.081411 
0.020447 0.052367 0.082325 
0.021253 0.088535 0.080617 
0.022392 0.1022 0.077057 
0.019627 0.104226 0.072643 
0.013255 0.08672 0.046018 
0.021683 0.104337 0.070616 
0.013236 0.052973 0.044264 
0.02588525 0.01132778 0.01389258 
0.02590258 0.1029814 0.07178344 
0.021444 0.03586 0.014009 
0.0246 0.039512 0.013264 
0.027871 0.080489 0.045267 
0.0302495 0.094135 0.074744 
0.027693 0.092311 0.080285 
0.02458167 0.1010826 0.07721333 
0.032439 0.051508 0.076719 
0.02224925 0.09945275 0.07851225 
0.022148 0.087033 0.08094 
0.031994 0.068793 0.072511 
0.03071534 0.09136546 0.07513282 
0.032588 0.052161 0.075661 
0.0254 0.092122 0.080934 
0.024278 0.047949 0.082796 
0.026789 0.0349425 0.0829895 
0.02293025 0.04279169 0.08300044 
0.031325 0.023877 0.0213885 
0.032991 0.042084 0.073861 
0.032961 0.03998987 0.07435725 
0.032491 0.051197 0.076529 
0.027425 -0.004 0.07678437 
0.02693021 0.0002064728 0.08299748 
0.0252 -0.004 0.0724 
0.0175997 0.01353641 0.02263576 
0.019196 0.000711 0.025173 
0.018932 0.012774 0.019779 
0.03396988 -0.0003317929 0.03730829 
0.0250015 0.0096735 0.0146475 
0.02319 0.012548 0.015389 
0.0291825 0.0122725 0.0147455 
0.022813 0.009058 0.01669 
0.0317385 -0.003495 0.0376605 
0.030094 -0.003362 0.028043 
0.02571991 -0.003998707 0.02311269 
0.026369 0.001763 0.017566 
0.029916 0.001098 0.020158 
3 0 1 2 
3 3 1 0 
3 30 6 7 
3 8 6 30 
3 10 20 9 
3 85 13 52 
3 14 13 15 
3 52 13 14 
3 16 17 18 
3 19 20 21 
3 22 17 23 
3 24 25 28 
3 28 6 24 
3 27 26 77 
3 69 73 6 
3 31 32 33 
3 35 4 34 
3 97 68 37 
3 38 39 44 
3 68 41 37 
3 42 43 101 
3 39 45 44 
3 10 9 93 
3 29 47 44 
3 35 48 10 
3 35 10 93 
3 4 35 93 
3 49 54 23 
3 47 54 49 
3 29 50 51 
3 52 59 53 
3 54 11 55 
3 56 54 55 
3 57 56 55 
3 12 55 11 
3 53 59 57 
3 53 57 55 
3 12 53 55 
3 54 47 11 
3 56 22 54 
3 22 23 54 
3 29 11 47 
3 34 47 49 
3 35 49 58 
3 34 49 35 
3 59 52 14 
3 59 60 57 
3 13 85 61 
3 15 13 61 
3 22 56 17 
3 56 57 17 
3 60 17 57 
3 60 59 17 
3 61 62 15 
3 17 59 18 
3 14 18 59 
3 15 18 14 
3 16 18 15 
3 16 15 62 
3 27 17 16 
3 63 27 77 
3 69 64 63 
3 65 19 58 
3 17 49 23 
3 17 65 58 
3 17 58 49 
3 65 20 19 
3 64 0 17 
3 64 66 0 
3 65 0 20 
3 65 17 0 
3 19 21 58 
3 35 67 48 
3 48 67 10 
3 21 67 35 
3 21 35 58 
3 21 10 67 
3 21 20 10 
3 66 64 69 
3 2 71 0 
3 46 70 9 
3 68 71 2 
3 71 46 0 
3 0 46 20 
3 71 68 46 
3 20 46 9 
3 69 25 0 
3 69 0 66 
3 24 3 0 
3 24 0 25 
3 3 72 1 
3 25 69 28 
3 3 24 6 
3 27 63 17 
3 28 69 6 
3 1 72 8 
3 72 6 8 
3 72 3 6 
3 7 73 80 
3 7 6 73 
3 80 73 74 
3 64 17 63 
3 73 69 75 
3 63 75 69 
3 77 75 63 
3 76 80 74 
3 73 75 74 
3 62 61 78 
3 27 16 62 
3 77 74 75 
3 27 62 26 
3 62 78 26 
3 79 80 81 
3 79 30 7 
3 80 79 7 
3 77 82 74 
3 77 26 82 
3 80 76 81 
3 85 26 78 
3 61 85 78 
3 74 83 84 
3 82 83 74 
3 26 85 83 
3 26 83 82 
3 83 85 84 
3 81 76 87 
3 76 89 88 
3 87 76 88 
3 89 31 88 
3 88 36 87 
3 90 33 32 
3 5 91 50 
3 5 50 32 
3 32 50 90 
3 85 52 91 
3 5 85 91 
3 31 5 32 
3 50 29 90 
3 84 85 5 
3 31 89 5 
3 76 5 89 
3 74 84 5 
3 74 5 76 
3 51 11 29 
3 50 91 51 
3 51 91 52 
3 52 53 51 
3 12 51 53 
3 51 12 11 
3 90 29 92 
3 87 36 81 
3 36 79 81 
3 36 30 79 
3 42 29 43 
3 34 4 44 
3 47 34 44 
3 39 94 93 
3 39 4 94 
3 38 4 39 
3 4 38 44 
3 93 9 95 
3 93 94 4 
3 39 93 95 
3 41 1 86 
3 96 30 36 
3 70 46 68 
3 9 68 98 
3 9 70 68 
3 95 9 98 
3 2 99 68 
3 2 1 99 
3 1 41 99 
3 99 41 68 
3 98 68 95 
3 95 100 39 
3 95 68 100 
3 68 97 100 
3 96 37 30 
3 41 30 37 
3 31 36 88 
3 41 86 30 
3 33 36 31 
3 1 30 86 
3 30 1 8 
3 40 101 96 
3 40 90 92 
3 33 40 96 
3 90 40 33 
3 33 96 36 
3 92 29 42 
3 40 92 42 
3 42 101 40 
3 29 103 43 
3 44 45 103 
3 103 104 105 
3 45 39 104 
3 39 97 104 
3 39 100 97 
3 37 104 97 
3 45 104 103 
3 29 44 103 
3 103 102 43 
3 101 102 96 
3 101 43 102 
3 37 96 102 
3 103 105 102 
3 37 105 104 
3 37 102 105 
